<svg width="80" height="16" viewBox="0 0 80 16" fill="none" xmlns="http://www.w3.org/2000/svg">
<mask id="mask0_212_23" style="mask-type:alpha" maskUnits="userSpaceOnUse" x="0" y="3" width="79" height="11">
<path d="M5.6435 8.0185C6.8675 8.3245 7.4795 9.0625 7.4795 10.2325C7.4795 11.2045 7.1465 11.911 6.4805 12.352C5.8145 12.784 4.91 13 3.767 13H0.878V3.604H3.47C4.631 3.604 5.5355 3.8065 6.1835 4.2115C6.8315 4.6165 7.1555 5.224 7.1555 6.034C7.1555 6.556 7.0115 6.988 6.7235 7.33C6.4445 7.663 6.0845 7.8925 5.6435 8.0185ZM3.551 5.44V7.2625H3.6995C4.0055 7.2625 4.2125 7.186 4.3205 7.033C4.4285 6.871 4.4825 6.628 4.4825 6.304C4.4825 5.728 4.226 5.44 3.713 5.44H3.551ZM3.794 11.11C4.442 11.11 4.766 10.7545 4.766 10.0435C4.766 9.6835 4.694 9.4135 4.55 9.2335C4.415 9.0535 4.181 8.9635 3.848 8.9635H3.551V11.11H3.794ZM11.5495 3.334C12.5755 3.334 13.462 3.6985 14.209 4.4275L13.0075 5.8585C12.7915 5.6695 12.5845 5.5255 12.3865 5.4265C12.1975 5.3185 11.995 5.2645 11.779 5.2645C11.356 5.2645 11.041 5.4985 10.834 5.9665C10.636 6.4345 10.537 7.204 10.537 8.275C10.537 9.337 10.636 10.102 10.834 10.57C11.041 11.029 11.3515 11.2585 11.7655 11.2585C12.0085 11.2585 12.2245 11.209 12.4135 11.11C12.6115 11.002 12.859 10.8265 13.156 10.5835L14.29 11.9875C13.939 12.3655 13.5295 12.676 13.0615 12.919C12.5935 13.153 12.0715 13.27 11.4955 13.27C10.3525 13.27 9.44354 12.8515 8.76854 12.0145C8.10254 11.1685 7.76954 9.922 7.76954 8.275C7.76954 7.204 7.92704 6.2995 8.24204 5.5615C8.55704 4.8235 8.99804 4.27 9.56504 3.901C10.132 3.523 10.7935 3.334 11.5495 3.334ZM19.9616 3.604L19.6916 5.4535H17.2751V7.33H19.4081V9.139H17.2751V11.1235H19.8536V13H14.6021V3.604H19.9616ZM27.4492 8.0185C28.6732 8.3245 29.2852 9.0625 29.2852 10.2325C29.2852 11.2045 28.9522 11.911 28.2862 12.352C27.6202 12.784 26.7157 13 25.5727 13H22.6837V3.604H25.2757C26.4367 3.604 27.3412 3.8065 27.9892 4.2115C28.6372 4.6165 28.9612 5.224 28.9612 6.034C28.9612 6.556 28.8172 6.988 28.5292 7.33C28.2502 7.663 27.8902 7.8925 27.4492 8.0185ZM25.3567 5.44V7.2625H25.5052C25.8112 7.2625 26.0182 7.186 26.1262 7.033C26.2342 6.871 26.2882 6.628 26.2882 6.304C26.2882 5.728 26.0317 5.44 25.5187 5.44H25.3567ZM25.5997 11.11C26.2477 11.11 26.5717 10.7545 26.5717 10.0435C26.5717 9.6835 26.4997 9.4135 26.3557 9.2335C26.2207 9.0535 25.9867 8.9635 25.6537 8.9635H25.3567V11.11H25.5997ZM33.2877 3.334C35.7717 3.334 37.0137 4.9855 37.0137 8.2885C37.0137 9.9265 36.6987 11.1685 36.0687 12.0145C35.4387 12.8515 34.5117 13.27 33.2877 13.27C32.0637 13.27 31.1367 12.856 30.5067 12.028C29.8857 11.191 29.5752 9.9445 29.5752 8.2885C29.5752 6.6595 29.8857 5.4265 30.5067 4.5895C31.1367 3.7525 32.0637 3.334 33.2877 3.334ZM33.2877 5.2375C33.0447 5.2375 32.8557 5.3365 32.7207 5.5345C32.5857 5.7235 32.4867 6.034 32.4237 6.466C32.3697 6.898 32.3427 7.5055 32.3427 8.2885C32.3427 9.0985 32.3697 9.724 32.4237 10.165C32.4777 10.597 32.5722 10.9075 32.7072 11.0965C32.8422 11.2855 33.0357 11.38 33.2877 11.38C33.5487 11.38 33.7467 11.2855 33.8817 11.0965C34.0167 10.9075 34.1112 10.597 34.1652 10.165C34.2192 9.733 34.2462 9.1075 34.2462 8.2885C34.2462 7.5145 34.2147 6.9115 34.1517 6.4795C34.0977 6.0385 33.9987 5.7235 33.8547 5.5345C33.7197 5.3365 33.5307 5.2375 33.2877 5.2375ZM39.733 13.2565C39.049 13.2565 38.473 13.144 38.005 12.919C37.546 12.694 37.1455 12.361 36.8035 11.92L38.1265 10.6105C38.4055 10.8715 38.6485 11.0605 38.8555 11.1775C39.0625 11.2945 39.2785 11.353 39.5035 11.353C39.7735 11.353 39.9895 11.254 40.1515 11.056C40.3135 10.858 40.3945 10.57 40.3945 10.192C40.3945 9.391 40.0525 8.9905 39.3685 8.9905H38.4775L38.7745 7.141H39.4225C39.9625 7.141 40.2325 6.8125 40.2325 6.1555C40.2325 5.5255 39.9985 5.2105 39.5305 5.2105C39.1165 5.2105 38.68 5.44 38.221 5.899L37.0735 4.6165C37.8475 3.7615 38.8015 3.334 39.9355 3.334C40.5295 3.334 41.0515 3.442 41.5015 3.658C41.9605 3.865 42.316 4.1575 42.568 4.5355C42.82 4.9135 42.946 5.3455 42.946 5.8315C42.946 7.0195 42.298 7.7575 41.002 8.0455C41.731 8.1355 42.271 8.374 42.622 8.761C42.982 9.139 43.162 9.67 43.162 10.354C43.162 10.948 43.018 11.4655 42.73 11.9065C42.442 12.3385 42.037 12.6715 41.515 12.9055C41.002 13.1395 40.408 13.2565 39.733 13.2565ZM46.3468 3.604C47.5618 3.604 48.4888 3.874 49.1278 4.414C49.7668 4.945 50.0863 5.7235 50.0863 6.7495C50.0863 7.8205 49.7893 8.635 49.1953 9.193C48.6013 9.751 47.7643 10.03 46.6843 10.03H46.2658V13H43.5928V3.604H46.3468ZM46.4008 8.1535C46.7698 8.1535 47.0218 8.0455 47.1568 7.8295C47.3008 7.6135 47.3728 7.2535 47.3728 6.7495C47.3728 6.2995 47.3053 5.971 47.1703 5.764C47.0443 5.557 46.8013 5.4535 46.4413 5.4535H46.2658V8.1535H46.4008ZM53.9082 13L53.6382 11.137H52.0047L51.7347 13H49.0752L51.2622 3.604H54.4212L56.5947 13H53.9082ZM52.2747 9.274H53.3682L52.8147 5.4805L52.2747 9.274ZM60.197 3.334C61.223 3.334 62.1095 3.6985 62.8565 4.4275L61.655 5.8585C61.439 5.6695 61.232 5.5255 61.034 5.4265C60.845 5.3185 60.6425 5.2645 60.4265 5.2645C60.0035 5.2645 59.6885 5.4985 59.4815 5.9665C59.2835 6.4345 59.1845 7.204 59.1845 8.275C59.1845 9.337 59.2835 10.102 59.4815 10.57C59.6885 11.029 59.999 11.2585 60.413 11.2585C60.656 11.2585 60.872 11.209 61.061 11.11C61.259 11.002 61.5065 10.8265 61.8035 10.5835L62.9375 11.9875C62.5865 12.3655 62.177 12.676 61.709 12.919C61.241 13.153 60.719 13.27 60.143 13.27C59 13.27 58.091 12.8515 57.416 12.0145C56.75 11.1685 56.417 9.922 56.417 8.275C56.417 7.204 56.5745 6.2995 56.8895 5.5615C57.2045 4.8235 57.6455 4.27 58.2125 3.901C58.7795 3.523 59.441 3.334 60.197 3.334ZM69.0982 3.604L68.8282 5.5885H67.1947V13H64.5217V5.5885H62.7532V3.604H69.0982ZM72.4178 6.6955C74.6318 6.6955 75.7388 7.7125 75.7388 9.7465C75.7388 10.8085 75.4508 11.6185 74.8748 12.1765C74.2988 12.7255 73.5203 13 72.5393 13H69.3668V3.604H72.0398V6.6955H72.4178ZM75.9413 3.604H78.6143V13H75.9413V3.604ZM72.1883 11.11C72.4853 11.11 72.6878 11.002 72.7958 10.786C72.9128 10.57 72.9713 10.2325 72.9713 9.7735C72.9713 9.3415 72.9173 9.022 72.8093 8.815C72.7013 8.608 72.5033 8.5045 72.2153 8.5045H72.0398V11.11H72.1883Z" fill="black"/>
</mask>
<g mask="url(#mask0_212_23)">
<rect y="2" width="80" height="12" fill="#FF3333"/>
<rect y="12" width="80" height="2" fill="#4C0029"/>
<rect y="11" width="80" height="0.5" fill="#4C0029"/>
<rect y="10" width="80" height="0.5" fill="#4C0029"/>
</g>
</svg>
